<svg xmlns="http://www.w3.org/2000/svg" viewBox="0 0 1050.78 77.46"><defs><style>.cls-1{fill:#de000a;}</style></defs><title>BOA</title><g id="Layer_2" data-name="Layer 2"><g id="Layer_1-2" data-name="Layer 1"><path class="cls-1" d="M38.09,40.08q0,10.16-4.34,15.84T21.64,61.6a13.23,13.23,0,0,1-11-5.27l-.5,4.49H0V.82H11.29V22.34a12.87,12.87,0,0,1,10.27-4.57,14.48,14.48,0,0,1,12.13,5.69q4.39,5.68,4.4,16ZM26.8,39.22c0-4.29-.68-7.41-2-9.39a6.88,6.88,0,0,0-6.06-2.95c-3.59,0-6.07,1.47-7.42,4.42V48q2.07,4.47,7.5,4.47T26,47.09A28.2,28.2,0,0,0,26.8,39.22Z"/><path class="cls-1" d="M43.28,39.3A25.1,25.1,0,0,1,45.7,28.09a17.72,17.72,0,0,1,7-7.62,20.28,20.28,0,0,1,10.56-2.7q8.57,0,14,5.24t6,14.22l.08,2.89q0,9.72-5.43,15.6T63.32,61.6q-9.14,0-14.59-5.86T43.28,39.8Zm11.29.8q0,6,2.27,9.21a7.46,7.46,0,0,0,6.48,3.19,7.51,7.51,0,0,0,6.41-3.15Q72,46.2,72,39.28q0-5.91-2.3-9.16a7.51,7.51,0,0,0-6.49-3.24,7.36,7.36,0,0,0-6.4,3.22Q54.58,33.33,54.57,40.1Z"/><path class="cls-1" d="M114.77,60.82A12.48,12.48,0,0,1,113.63,57,13.64,13.64,0,0,1,103,61.6,15,15,0,0,1,92.68,58,11.55,11.55,0,0,1,88.59,49q0-6.72,5-10.32T108,35h5.19V32.58a7,7,0,0,0-1.5-4.69,5.92,5.92,0,0,0-4.75-1.76,6.73,6.73,0,0,0-4.47,1.37,4.64,4.64,0,0,0-1.62,3.75H89.53a11.37,11.37,0,0,1,2.27-6.8,15,15,0,0,1,6.4-4.9,23.44,23.44,0,0,1,9.3-1.78q7.81,0,12.4,3.93t4.59,11V51.05c0,4,.59,7.05,1.68,9.11v.66ZM105.43,53A9.75,9.75,0,0,0,110,51.86a7.29,7.29,0,0,0,3.12-3V41.6H109c-5.66,0-8.66,1.95-9,5.86l0,.66a4.52,4.52,0,0,0,1.49,3.48A5.77,5.77,0,0,0,105.43,53Z"/><path class="cls-1" d="M156.91,29.14a30.26,30.26,0,0,0-4.06-.31q-6.4,0-8.4,4.33V60.82H133.16V18.55h10.67l.31,5q3.41-5.82,9.41-5.82a11.79,11.79,0,0,1,3.52.51Z"/><path class="cls-1" d="M159.84,39.38q0-9.89,4.44-15.75a14.4,14.4,0,0,1,12.13-5.86,13,13,0,0,1,10.19,4.61V.82h11.33v60h-10.2l-.54-4.49a13.3,13.3,0,0,1-10.86,5.27,14.32,14.32,0,0,1-12-5.88Q159.84,49.84,159.84,39.38Zm11.29.8q0,6,2.07,9.14a6.75,6.75,0,0,0,6,3.18,7.55,7.55,0,0,0,7.38-4.43V31.31a7.43,7.43,0,0,0-7.3-4.43Q171.13,26.88,171.13,40.18Z"/><path class="cls-1" d="M224.84,39.3a25,25,0,0,1,2.43-11.21,17.63,17.63,0,0,1,7-7.62,20.28,20.28,0,0,1,10.56-2.7q8.56,0,14,5.24t6,14.22l.08,2.89q0,9.72-5.43,15.6T244.88,61.6q-9.13,0-14.59-5.86T224.84,39.8Zm11.29.8q0,6,2.27,9.21a8.14,8.14,0,0,0,12.89,0q2.31-3.15,2.3-10.07c0-3.94-.76-7-2.3-9.16a7.51,7.51,0,0,0-6.49-3.24,7.36,7.36,0,0,0-6.4,3.22Q236.14,33.33,236.13,40.1Z"/><path class="cls-1" d="M274.92,60.82v-34h-6.29V18.55h6.29V15q0-7.11,4.08-11T290.43,0a26.92,26.92,0,0,1,5.74.77l-.12,8.68a14.54,14.54,0,0,0-3.43-.35q-6.37,0-6.37,6v3.42h8.4v8.29h-8.4v34Z"/><path class="cls-1" d="M344.92,60.82A12.49,12.49,0,0,1,343.79,57a13.66,13.66,0,0,1-10.67,4.57A15,15,0,0,1,322.83,58,11.57,11.57,0,0,1,318.75,49q0-6.72,5-10.32T338.12,35h5.2V32.58a7,7,0,0,0-1.5-4.69,5.94,5.94,0,0,0-4.75-1.76,6.73,6.73,0,0,0-4.47,1.37A4.64,4.64,0,0,0,331,31.25H319.69a11.36,11.36,0,0,1,2.26-6.8,15,15,0,0,1,6.41-4.9,23.44,23.44,0,0,1,9.3-1.78q7.8,0,12.4,3.93t4.59,11V51.05c0,4,.58,7.05,1.68,9.11v.66ZM335.59,53a9.78,9.78,0,0,0,4.61-1.11,7.4,7.4,0,0,0,3.12-3V41.6H339.1q-8.48,0-9,5.86l0,.66a4.51,4.51,0,0,0,1.48,3.48A5.79,5.79,0,0,0,335.59,53Z"/><path class="cls-1" d="M387.07,29.14a30.38,30.38,0,0,0-4.06-.31q-6.4,0-8.4,4.33V60.82H363.32V18.55H374l.32,5q3.39-5.82,9.41-5.82a11.84,11.84,0,0,1,3.52.51Z"/><path class="cls-1" d="M409.34,52.5a7.37,7.37,0,0,0,5.07-1.72,6,6,0,0,0,2-4.57H427a14.54,14.54,0,0,1-2.34,7.87,15.55,15.55,0,0,1-6.31,5.55,19.82,19.82,0,0,1-8.85,2q-9.06,0-14.3-5.76T390,39.92v-.74q0-9.76,5.2-15.59t14.25-5.82q7.94,0,12.72,4.52t4.86,12H416.45a7.75,7.75,0,0,0-2-5.36,7.55,7.55,0,0,0-11.11.81q-2,2.88-2,9.33v1.17q0,6.54,2,9.39A6.88,6.88,0,0,0,409.34,52.5Z"/><path class="cls-1" d="M444.49,23.16a14.11,14.11,0,0,1,11.29-5.39q13.75,0,14,16V60.82H458.44V34q0-3.64-1.56-5.38t-5.2-1.74c-3.31,0-5.7,1.27-7.19,3.83V60.82H433.2V.82h11.29Z"/><path class="cls-1" d="M478.16,7.62a5.55,5.55,0,0,1,1.7-4.18,7.33,7.33,0,0,1,9.24,0,5.5,5.5,0,0,1,1.72,4.18,5.55,5.55,0,0,1-1.74,4.22,7.24,7.24,0,0,1-9.18,0A5.55,5.55,0,0,1,478.16,7.62Zm12,53.2H478.83V18.55h11.33Z"/><path class="cls-1" d="M513,8.16V18.55h7.23v8.29H513V47.93a5,5,0,0,0,.9,3.36c.6.68,1.74,1,3.43,1a18.2,18.2,0,0,0,3.32-.27v8.56a23.43,23.43,0,0,1-6.83,1q-11.88,0-12.11-12V26.84h-6.17V18.55h6.17V8.16Z"/><path class="cls-1" d="M545.94,61.6q-9.3,0-15.14-5.7T525,40.7V39.61a25.58,25.58,0,0,1,2.46-11.39,18.13,18.13,0,0,1,7-7.73,19.59,19.59,0,0,1,10.3-2.72q8.67,0,13.65,5.47t5,15.51v4.61H536.41a10.45,10.45,0,0,0,3.3,6.64,10,10,0,0,0,7,2.5,12.2,12.2,0,0,0,10.2-4.73L562.42,54a16.89,16.89,0,0,1-6.87,5.61A22.59,22.59,0,0,1,545.94,61.6Zm-1.29-34.72a7,7,0,0,0-5.45,2.27,11.82,11.82,0,0,0-2.68,6.51h15.71v-.9a8.43,8.43,0,0,0-2-5.82A7.28,7.28,0,0,0,544.65,26.88Z"/><path class="cls-1" d="M587.3,52.5a7.37,7.37,0,0,0,5.08-1.72,6,6,0,0,0,2-4.57H605a14.54,14.54,0,0,1-2.34,7.87,15.55,15.55,0,0,1-6.31,5.55,19.82,19.82,0,0,1-8.85,2q-9.06,0-14.3-5.76T568,39.92v-.74q0-9.76,5.19-15.59t14.26-5.82q7.94,0,12.72,4.52t4.86,12H594.41a7.75,7.75,0,0,0-2-5.36,7.55,7.55,0,0,0-11.11.81q-2,2.88-2,9.33v1.17q0,6.54,2,9.39A6.88,6.88,0,0,0,587.3,52.5Z"/><path class="cls-1" d="M625,8.16V18.55h7.23v8.29H625V47.93a5,5,0,0,0,.9,3.36c.6.68,1.74,1,3.44,1a18.27,18.27,0,0,0,3.32-.27v8.56a23.55,23.55,0,0,1-6.84,1q-11.88,0-12.11-12V26.84H607.5V18.55h6.17V8.16Z"/><path class="cls-1" d="M661.37,49.14a3.64,3.64,0,0,0-2-3.26,23.38,23.38,0,0,0-6.59-2.13q-15.08-3.16-15.07-12.81a11.63,11.63,0,0,1,4.66-9.4c3.12-2.51,7.18-3.77,12.21-3.77q8.06,0,12.87,3.79a12,12,0,0,1,4.83,9.85H660.94a5.48,5.48,0,0,0-1.56-4,6.65,6.65,0,0,0-4.89-1.58,6.74,6.74,0,0,0-4.41,1.29,4.07,4.07,0,0,0-1.56,3.28,3.49,3.49,0,0,0,1.77,3,18.35,18.35,0,0,0,6,2,49.65,49.65,0,0,1,7.11,1.89q8.94,3.29,8.94,11.37a11,11,0,0,1-5,9.36c-3.3,2.38-7.58,3.57-12.81,3.57a22.36,22.36,0,0,1-9.43-1.89,15.88,15.88,0,0,1-6.47-5.2,12.07,12.07,0,0,1-2.34-7.13H647A5.88,5.88,0,0,0,649.26,52a8.81,8.81,0,0,0,5.54,1.6,8.19,8.19,0,0,0,4.91-1.23A3.84,3.84,0,0,0,661.37,49.14Z"/><path d="M722.42,49.14a3.62,3.62,0,0,0-2-3.26,23.29,23.29,0,0,0-6.58-2.13q-15.07-3.16-15.08-12.81a11.64,11.64,0,0,1,4.67-9.4q4.67-3.76,12.21-3.77,8,0,12.87,3.79a12,12,0,0,1,4.82,9.85H722a5.48,5.48,0,0,0-1.56-4,6.63,6.63,0,0,0-4.88-1.58,6.77,6.77,0,0,0-4.42,1.29,4.07,4.07,0,0,0-1.56,3.28,3.48,3.48,0,0,0,1.78,3,18.19,18.19,0,0,0,6,2,48.94,48.94,0,0,1,7.11,1.89q9,3.29,8.95,11.37a11.05,11.05,0,0,1-5,9.36q-5,3.57-12.82,3.57a22.39,22.39,0,0,1-9.43-1.89,15.85,15.85,0,0,1-6.46-5.2,12,12,0,0,1-2.35-7.13h10.71A5.87,5.87,0,0,0,710.31,52a8.82,8.82,0,0,0,5.55,1.6,8.18,8.18,0,0,0,4.9-1.23A3.81,3.81,0,0,0,722.42,49.14Z"/><path d="M740.59,7.62a5.52,5.52,0,0,1,1.7-4.18,7.31,7.31,0,0,1,9.23,0,5.5,5.5,0,0,1,1.72,4.18,5.55,5.55,0,0,1-1.74,4.22,7.24,7.24,0,0,1-9.18,0A5.58,5.58,0,0,1,740.59,7.62Zm12,53.2H741.25V18.55h11.33Z"/><path d="M772.27,18.55l.35,4.89a14.75,14.75,0,0,1,12.15-5.67q6.71,0,10,3.95t3.35,11.8v27.3H786.84V33.73c0-2.4-.53-4.15-1.57-5.23s-2.77-1.62-5.19-1.62A7.75,7.75,0,0,0,772.93,31V60.82H761.64V18.55Z"/><path d="M805,39.38q0-9.74,4.63-15.67a15,15,0,0,1,12.48-5.94q6.95,0,10.82,4.77l.47-4h10.23V59.41a18.05,18.05,0,0,1-2.52,9.65,16.12,16.12,0,0,1-7.09,6.25,24.92,24.92,0,0,1-10.7,2.15,23.27,23.27,0,0,1-9.06-1.85,16.1,16.1,0,0,1-6.68-4.79l5-6.87a13.21,13.21,0,0,0,10.23,4.72,9.66,9.66,0,0,0,7-2.4,9,9,0,0,0,2.5-6.82V57.19a13.06,13.06,0,0,1-10.27,4.41,14.92,14.92,0,0,1-12.32-6q-4.71-6-4.71-15.8Zm11.29.8c0,3.84.77,6.86,2.3,9A7.33,7.33,0,0,0,825,52.5q5.16,0,7.38-3.88V30.76q-2.26-3.89-7.3-3.88a7.38,7.38,0,0,0-6.39,3.33Q816.33,33.54,816.33,40.18Z"/><path d="M876.84,60.82A12.48,12.48,0,0,1,875.7,57,13.64,13.64,0,0,1,865,61.6,15,15,0,0,1,854.75,58,11.55,11.55,0,0,1,850.66,49q0-6.72,5-10.32T870,35h5.19V32.58a7,7,0,0,0-1.5-4.69A5.92,5.92,0,0,0,869,26.13a6.73,6.73,0,0,0-4.47,1.37,4.64,4.64,0,0,0-1.62,3.75H851.6a11.37,11.37,0,0,1,2.27-6.8,15,15,0,0,1,6.4-4.9,23.44,23.44,0,0,1,9.3-1.78q7.81,0,12.4,3.93t4.59,11V51.05c0,4,.59,7.05,1.68,9.11v.66ZM867.5,53a9.75,9.75,0,0,0,4.61-1.11,7.29,7.29,0,0,0,3.12-3V41.6H871c-5.66,0-8.66,1.95-9,5.86l0,.66a4.52,4.52,0,0,0,1.49,3.48A5.77,5.77,0,0,0,867.5,53Z"/><path d="M933.28,40.08q0,9.77-4.43,15.64a14.22,14.22,0,0,1-12,5.88,13.17,13.17,0,0,1-10.36-4.45V77.07H895.23V18.55H905.7l.39,4.15a13.27,13.27,0,0,1,10.71-4.93q7.8,0,12.15,5.78t4.33,15.94ZM922,39.22q0-5.92-2.09-9.13a6.8,6.8,0,0,0-6.07-3.21c-3.54,0-6,1.35-7.31,4.07V48.31q2.07,4.19,7.39,4.19Q922,52.5,922,39.22Z"/><path d="M938.52,39.3a25,25,0,0,1,2.42-11.21,17.69,17.69,0,0,1,7-7.62,20.32,20.32,0,0,1,10.57-2.7q8.55,0,14,5.24t6,14.22l.07,2.89q0,9.72-5.43,15.6T958.55,61.6q-9.13,0-14.59-5.86T938.52,39.8Zm11.28.8q0,6,2.27,9.21a8.14,8.14,0,0,0,12.89,0q2.31-3.15,2.31-10.07,0-5.91-2.31-9.16a7.5,7.5,0,0,0-6.48-3.24,7.37,7.37,0,0,0-6.41,3.22Q949.8,33.33,949.8,40.1Z"/><path d="M1009.26,29.14a30.38,30.38,0,0,0-4.06-.31q-6.42,0-8.4,4.33V60.82H985.51V18.55h10.66l.31,5q3.4-5.82,9.42-5.82a11.73,11.73,0,0,1,3.51.51Z"/><path d="M1033.4,61.6q-9.3,0-15.14-5.7t-5.84-15.2V39.61a25.58,25.58,0,0,1,2.46-11.39,18.08,18.08,0,0,1,7-7.73,19.53,19.53,0,0,1,10.29-2.72q8.67,0,13.65,5.47t5,15.51v4.61h-26.91a10.45,10.45,0,0,0,3.3,6.64,10,10,0,0,0,7,2.5,12.2,12.2,0,0,0,10.2-4.73l5.54,6.21a16.89,16.89,0,0,1-6.87,5.61A22.59,22.59,0,0,1,1033.4,61.6Zm-1.29-34.72a7,7,0,0,0-5.45,2.27,11.89,11.89,0,0,0-2.68,6.51h15.71v-.9a8.43,8.43,0,0,0-2-5.82A7.28,7.28,0,0,0,1032.11,26.88Z"/></g></g></svg>